<?xml version="1.0" standalone="no"?>
<!DOCTYPE svg PUBLIC "-//W3C//DTD SVG 20010904//EN"
 "http://www.w3.org/TR/2001/REC-SVG-20010904/DTD/svg10.dtd">
<svg version="1.0" xmlns="http://www.w3.org/2000/svg"
 width="512.000000pt" height="512.000000pt" viewBox="0 0 512.000000 512.000000"
 preserveAspectRatio="xMidYMid meet">
<metadata>
Created by potrace 1.11, written by Peter Selinger 2001-2013
</metadata>
<g transform="translate(0.000000,512.000000) scale(0.100000,-0.100000)"
fill="#000000" stroke="none">
<path d="M767 4913 c-4 -3 -7 -233 -7 -510 l0 -503 -287 -2 -288 -3 -3 -1570
c-3 -1560 -1 -1702 29 -1721 5 -3 9 -13 9 -22 0 -9 14 -46 32 -81 35 -70 170
-214 223 -241 17 -8 41 -22 55 -31 14 -9 59 -28 100 -40 l75 -24 1840 0 c2060
0 1886 -6 2045 72 138 68 272 226 318 373 32 101 33 175 30 2235 l-3 2070
-2081 3 c-1144 1 -2084 -1 -2087 -5z m3881 -2203 c2 -1392 0 -1931 -8 -1975
-22 -116 -89 -201 -197 -251 l-54 -24 -1821 0 c-1401 0 -1830 3 -1857 12 -89
30 -168 102 -208 188 -31 67 -33 144 -33 1535 l0 1405 279 0 c154 0 286 3 295
6 14 5 16 60 16 515 l0 509 1793 -2 1792 -3 3 -1915z"/>
<path d="M1354 3737 c-3 -8 -3 -56 -2 -108 l3 -94 1498 -3 1497 -2 0 110 0
110 -1495 0 c-1232 0 -1497 -2 -1501 -13z"/>
</g>
</svg>
